<svg viewBox="0 0 1200 280" xmlns="http://www.w3.org/2000/svg">
  <defs>
    <pattern id="gl2" width="48" height="48" patternUnits="userSpaceOnUse">
      <path d="M 48 0 L 0 0 0 48" fill="none" stroke="rgba(99,102,241,.05)" stroke-width="1"></path>
    </pattern>
    <radialGradient id="glow2" cx="18%" cy="50%" r="55%">
      <stop offset="0%" stop-color="#7C3AED" stop-opacity=".08"></stop>
      <stop offset="100%" stop-color="#7C3AED" stop-opacity="0"></stop>
    </radialGradient>
  </defs>
  <rect width="1200" height="280" fill="#F8F8FC"></rect>
  <rect width="1200" height="280" fill="url(#gl2)"></rect>
  <rect width="1200" height="280" fill="url(#glow2)"></rect>
  <svg x="56" y="85" width="98" height="110" viewBox="0 0 80 90" xmlns="http://www.w3.org/2000/svg">
    <circle cx="40" cy="57" r="30" fill="#7C3AED"></circle>
    <polygon points="40,4 51,32 29,32" fill="#00D4FF"></polygon>
    <ellipse cx="28" cy="51" rx="7.5" ry="8.5" fill="white"></ellipse>
    <ellipse cx="52" cy="51" rx="7.5" ry="8.5" fill="white"></ellipse>
    <circle cx="29" cy="52" r="4.5" fill="#0A0A0F"></circle>
    <circle cx="53" cy="52" r="4.5" fill="#0A0A0F"></circle>
    <circle cx="31" cy="50" r="1.8" fill="white" opacity=".75"></circle>
    <circle cx="55" cy="50" r="1.8" fill="white" opacity=".75"></circle>
    <ellipse cx="40" cy="66" rx="6.5" ry="4.5" fill="#4C1D95"></ellipse>
  </svg>
  <text x="174" y="123" font-family="system-ui,sans-serif" font-size="54" font-weight="700" fill="#0A0A0F" letter-spacing="-1.3">Unicorn</text>
  <text x="177" y="150" font-family="monospace" font-size="13" fill="#A1A1AA" letter-spacing="4">FRAMEWORK</text>
  <text x="177" y="182" font-family="system-ui,sans-serif" font-size="16" fill="#71717A">Write business logic, not boilerplate.</text>
  <rect x="177" y="200" width="78" height="26" rx="3" fill="rgba(124,58,237,.1)" stroke="rgba(124,58,237,.25)" stroke-width="1"></rect>
  <text x="216" y="218" font-family="monospace" font-size="11" fill="#7C3AED" text-anchor="middle">Go 1.24+</text>
  <rect x="263" y="200" width="62" height="26" rx="3" fill="rgba(0,148,210,.08)" stroke="rgba(0,148,210,.2)" stroke-width="1"></rect>
  <text x="294" y="218" font-family="monospace" font-size="11" fill="#0094D2" text-anchor="middle">v0.5.1</text>
  <rect x="333" y="200" width="48" height="26" rx="3" fill="rgba(5,150,105,.08)" stroke="rgba(5,150,105,.2)" stroke-width="1"></rect>
  <text x="357" y="218" font-family="monospace" font-size="11" fill="#059669" text-anchor="middle">MIT</text>
  <rect x="389" y="200" width="86" height="26" rx="3" fill="rgba(180,83,9,.07)" stroke="rgba(180,83,9,.18)" stroke-width="1"></rect>
  <text x="432" y="218" font-family="monospace" font-size="11" fill="#B45309" text-anchor="middle">~38ns/op</text>
  <line x1="770" y1="80" x2="770" y2="200" stroke="#E4E4E7" stroke-width="1"></line>
  <text x="800" y="118" font-family="monospace" font-size="11" fill="#D4D4D8">// BenchmarkContextAcquire-8</text>
  <text x="800" y="140" font-family="monospace" font-size="12.5" fill="#A1A1AA">30683319</text>
  <text x="900" y="140" font-family="monospace" font-size="12.5" fill="#7C3AED">38.26 ns/op</text>
  <text x="1060" y="140" font-family="monospace" font-size="12.5" fill="#059669">0 B/op</text>
  <text x="800" y="162" font-family="monospace" font-size="12.5" fill="#A1A1AA">30683319</text>
  <text x="900" y="162" font-family="monospace" font-size="12.5" fill="#7C3AED">38.26 ns/op</text>
  <text x="1060" y="162" font-family="monospace" font-size="12.5" fill="#059669">0 allocs/op</text>
</svg>